<?xml version="1.0" encoding="UTF-8" standalone="no"?>
<!-- Created with Inkscape (http://www.inkscape.org/) -->
<svg
   xmlns:svg="http://www.w3.org/2000/svg"
   xmlns="http://www.w3.org/2000/svg"
   version="1.0"
   width="100%"
   height="117.31"
   viewBox="0 0 117.31 89.687"
   id="Layer_1"
   xml:space="preserve"><defs
   id="defs52" />



<g
   transform="translate(-604,0)"
   id="g39"
   style="fill:#ffffff;fill-opacity:0.5">
	<path
   d="M 673.988,42.845 C 673.988,36.587 668.914,31.513 662.655,31.513 C 656.396,31.513 651.322,36.587 651.322,42.845 C 651.322,47.662 654.333,51.767 658.571,53.407 L 658.571,85.69 C 658.571,86.756 658.988,87.762 659.744,88.517 C 660.498,89.273 661.503,89.687 662.572,89.687 L 662.738,89.687 C 663.805,89.687 664.81,89.273 665.566,88.517 C 666.322,87.762 666.738,86.756 666.738,85.69 L 666.738,53.408 C 670.977,51.768 673.988,47.664 673.988,42.845 z"
   id="path41"
   style="fill:#ffffff;fill-opacity:0.5" />
	<path
   d="M 643.363,71.746 C 633.228,66.112 626.358,55.275 626.356,42.846 L 626.356,42.846 C 626.358,30.417 633.228,19.58 643.363,13.946 L 643.363,13.946 L 643.365,13.946 C 645.294,12.87 647.729,13.565 648.804,15.494 L 648.804,15.494 C 649.877,17.425 649.185,19.86 647.254,20.935 L 647.254,20.935 C 639.558,25.225 634.355,33.418 634.357,42.846 L 634.357,42.846 C 634.355,52.274 639.558,60.465 647.256,64.757 L 647.256,64.757 C 649.185,65.832 649.879,68.27 648.804,70.199 L 648.804,70.199 C 648.072,71.511 646.71,72.253 645.306,72.253 L 645.306,72.253 C 644.647,72.252 643.979,72.089 643.363,71.746 L 643.363,71.746 z"
   id="path43"
   style="fill:#ffffff;fill-opacity:0.5" />
	<path
   d="M 628.913,85.183 C 614.061,76.925 604,61.054 604,42.846 L 604,42.846 C 604,24.634 614.061,8.765 628.913,0.505 L 628.913,0.505 L 628.913,0.507 C 630.843,-0.569 633.277,0.126 634.353,2.056 L 634.353,2.056 C 635.426,3.986 634.734,6.421 632.803,7.496 L 632.803,7.496 C 620.392,14.411 611.995,27.636 611.998,42.846 L 611.998,42.846 C 611.995,58.054 620.392,71.279 632.803,78.194 L 632.803,78.194 C 634.734,79.267 635.428,81.704 634.353,83.633 L 634.353,83.633 C 633.621,84.947 632.258,85.689 630.854,85.689 L 630.854,85.689 C 630.196,85.689 629.529,85.526 628.913,85.183 L 628.913,85.183 z"
   id="path45"
   style="fill:#ffffff;fill-opacity:0.5" />
	<path
   d="M 676.505,70.198 C 675.429,68.267 676.123,65.831 678.054,64.758 L 678.054,64.758 C 685.749,60.466 690.952,52.274 690.95,42.846 L 690.95,42.846 C 690.952,33.418 685.749,25.226 678.054,20.934 L 678.054,20.934 C 676.123,19.86 675.429,17.424 676.505,15.493 L 676.505,15.493 C 677.578,13.563 680.015,12.87 681.945,13.945 L 681.945,13.945 C 692.08,19.579 698.95,30.417 698.952,42.846 L 698.952,42.846 C 698.95,55.274 692.08,66.114 681.945,71.747 L 681.945,71.747 C 681.329,72.09 680.661,72.254 680.002,72.254 L 680.002,72.254 C 678.598,72.253 677.235,71.511 676.505,70.198 L 676.505,70.198 z"
   id="path47"
   style="fill:#ffffff;fill-opacity:0.5" />
	<path
   d="M 690.954,83.633 C 689.88,81.701 690.573,79.267 692.505,78.192 L 692.505,78.192 C 704.916,71.279 713.312,58.054 713.31,42.847 L 713.31,42.847 C 713.312,27.635 704.916,14.411 692.505,7.497 L 692.505,7.497 C 690.575,6.422 689.88,3.985 690.956,2.056 L 690.956,2.056 C 692.03,0.124 694.466,-0.569 696.396,0.505 L 696.396,0.505 C 711.247,8.765 721.308,24.636 721.31,42.847 L 721.31,42.847 C 721.308,61.054 711.247,76.925 696.396,85.184 L 696.396,85.184 C 695.78,85.527 695.112,85.689 694.454,85.689 L 694.454,85.689 C 693.049,85.689 691.686,84.948 690.954,83.633 L 690.954,83.633 z"
   id="path49"
   style="fill:#ffffff;fill-opacity:0.5" />
</g>
</svg>