<?xml version="1.0" encoding="UTF-8" standalone="no"?>
<!-- Created with Inkscape (http://www.inkscape.org/) -->
<svg
   xmlns:svg="http://www.w3.org/2000/svg"
   xmlns="http://www.w3.org/2000/svg"
   version="1.0"
   width="117.31"
   height="117.31"
   viewBox="0 0 721.311 89.687"
   id="Layer_1"
   xml:space="preserve"><defs
   id="defs52">
	
	
	
	
	
</defs>


<g
   transform="matrix(6.1487598,0,0,6.1487925,-2475.9027,-230.89136)"
   id="g3204"><path
     d="M 472.655,42.845 C 472.655,36.587 467.581,31.513 461.322,31.513 C 455.063,31.513 449.989,36.587 449.989,42.845 C 449.989,47.662 453,51.767 457.238,53.407 L 457.238,85.69 C 457.238,86.756 457.655,87.762 458.411,88.517 C 459.165,89.273 460.17,89.687 461.239,89.687 L 461.405,89.687 C 462.472,89.687 463.477,89.273 464.233,88.517 C 464.989,87.762 465.405,86.756 465.405,85.69 L 465.405,53.408 C 469.644,51.768 472.655,47.664 472.655,42.845 z"
     id="path29"
     style="fill:#ffffff;fill-opacity:0.50196078" /><path
     d="M 442.03,71.746 C 431.895,66.112 425.025,55.275 425.023,42.846 L 425.023,42.846 C 425.025,30.417 431.895,19.58 442.03,13.946 L 442.03,13.946 L 442.032,13.946 C 443.961,12.87 446.396,13.565 447.471,15.494 L 447.471,15.494 C 448.544,17.425 447.852,19.86 445.921,20.935 L 445.921,20.935 C 438.225,25.225 433.022,33.418 433.024,42.846 L 433.024,42.846 C 433.022,52.274 438.225,60.465 445.923,64.757 L 445.923,64.757 C 447.852,65.832 448.546,68.27 447.471,70.199 L 447.471,70.199 C 446.739,71.511 445.377,72.253 443.973,72.253 L 443.973,72.253 C 443.314,72.252 442.646,72.089 442.03,71.746 L 442.03,71.746 z"
     id="path31"
     style="fill:#ffffff;fill-opacity:0.50196078" /><path
     d="M 427.58,85.183 C 412.727,76.925 402.667,61.054 402.667,42.846 L 402.667,42.846 C 402.667,24.634 412.728,8.765 427.58,0.505 L 427.58,0.505 L 427.58,0.507 C 429.51,-0.569 431.944,0.126 433.02,2.056 L 433.02,2.056 C 434.093,3.986 433.401,6.421 431.47,7.496 L 431.47,7.496 C 419.059,14.411 410.662,27.636 410.665,42.846 L 410.665,42.846 C 410.662,58.054 419.059,71.279 431.47,78.194 L 431.47,78.194 C 433.401,79.267 434.095,81.704 433.02,83.633 L 433.02,83.633 C 432.288,84.947 430.925,85.689 429.521,85.689 L 429.521,85.689 C 428.863,85.689 428.196,85.526 427.58,85.183 L 427.58,85.183 z"
     id="path33"
     style="fill:#808080;fill-opacity:0.50196078" /><path
     d="M 475.172,70.198 C 474.096,68.267 474.79,65.831 476.721,64.758 L 476.721,64.758 C 484.416,60.466 489.619,52.274 489.617,42.846 L 489.617,42.846 C 489.619,33.418 484.416,25.226 476.721,20.934 L 476.721,20.934 C 474.79,19.86 474.096,17.424 475.172,15.493 L 475.172,15.493 C 476.245,13.563 478.682,12.87 480.612,13.945 L 480.612,13.945 C 490.747,19.579 497.617,30.417 497.619,42.846 L 497.619,42.846 C 497.617,55.274 490.747,66.114 480.612,71.747 L 480.612,71.747 C 479.996,72.09 479.328,72.254 478.669,72.254 L 478.669,72.254 C 477.265,72.253 475.902,71.511 475.172,70.198 L 475.172,70.198 z"
     id="path35"
     style="fill:#ffffff;fill-opacity:0.50196078" /><path
     d="M 489.621,83.633 C 488.547,81.701 489.24,79.267 491.172,78.192 L 491.172,78.192 C 503.583,71.279 511.979,58.054 511.977,42.847 L 511.977,42.847 C 511.979,27.635 503.583,14.411 491.172,7.497 L 491.172,7.497 C 489.242,6.422 488.547,3.985 489.623,2.056 L 489.623,2.056 C 490.697,0.124 493.133,-0.569 495.063,0.505 L 495.063,0.505 C 509.914,8.765 519.975,24.636 519.977,42.847 L 519.977,42.847 C 519.975,61.054 509.914,76.925 495.063,85.184 L 495.063,85.184 C 494.447,85.527 493.779,85.689 493.121,85.689 L 493.121,85.689 C 491.716,85.689 490.353,84.948 489.621,83.633 L 489.621,83.633 z"
     id="path37"
     style="fill:#808080;fill-opacity:0.50196078" /></g>

</svg>