<?xml version="1.0" encoding="UTF-8" standalone="no"?>
<!-- Created with Inkscape (http://www.inkscape.org/) -->
<svg
   xmlns:svg="http://www.w3.org/2000/svg"
   xmlns="http://www.w3.org/2000/svg"
   version="1.0"
   width="100%"
   height="117.31"
   viewBox="0 0 117.31 89.687"
   id="Layer_1"
   xml:space="preserve"><defs
   id="defs52" />
<g
   id="g3"
   style="fill:#808080;fill-opacity:0.50196078">
	<path
   d="M 69.988,42.846 C 69.988,36.587 64.914,31.513 58.655,31.513 C 52.396,31.513 47.322,36.587 47.322,42.846 C 47.322,47.663 50.333,51.768 54.571,53.408 L 54.571,85.69 C 54.571,86.756 54.988,87.762 55.744,88.517 C 56.498,89.273 57.503,89.687 58.572,89.687 L 58.738,89.687 C 59.805,89.687 60.81,89.273 61.566,88.517 C 62.322,87.762 62.738,86.756 62.738,85.69 L 62.738,53.408 C 66.977,51.768 69.988,47.663 69.988,42.846 z"
   id="path5"
   style="fill:#808080;fill-opacity:0.50196078" />
	<path
   d="M 39.363,71.746 C 29.228,66.112 22.358,55.274 22.356,42.845 L 22.356,42.845 C 22.358,30.416 29.228,19.579 39.363,13.945 L 39.363,13.945 L 39.365,13.945 C 41.294,12.869 43.729,13.564 44.804,15.493 L 44.804,15.493 C 45.877,17.424 45.185,19.859 43.254,20.934 L 43.254,20.934 C 35.558,25.224 30.355,33.417 30.357,42.845 L 30.357,42.845 C 30.355,52.273 35.558,60.465 43.256,64.756 L 43.256,64.756 C 45.185,65.832 45.879,68.269 44.804,70.198 L 44.804,70.198 C 44.072,71.511 42.71,72.252 41.306,72.252 L 41.306,72.252 C 40.647,72.252 39.979,72.089 39.363,71.746 L 39.363,71.746 z"
   id="path7"
   style="fill:#808080;fill-opacity:0.50196078" />
	<path
   d="M 24.913,85.183 C 10.061,76.925 0,61.054 0,42.846 L 0,42.846 C 0,24.635 10.061,8.765 24.913,0.505 L 24.913,0.505 L 24.913,0.507 C 26.843,-0.569 29.277,0.126 30.353,2.056 L 30.353,2.056 C 31.426,3.986 30.734,6.421 28.803,7.496 L 28.803,7.496 C 16.392,14.412 7.995,27.636 7.998,42.846 L 7.998,42.846 C 7.995,58.054 16.392,71.278 28.803,78.194 L 28.803,78.194 C 30.734,79.267 31.428,81.704 30.353,83.633 L 30.353,83.633 C 29.621,84.947 28.258,85.689 26.854,85.689 L 26.854,85.689 C 26.196,85.689 25.529,85.526 24.913,85.183 L 24.913,85.183 z"
   id="path9"
   style="fill:#808080;fill-opacity:0.50196078" />
	<path
   d="M 72.505,70.198 C 71.429,68.268 72.123,65.831 74.054,64.758 L 74.054,64.758 C 81.749,60.466 86.952,52.274 86.95,42.846 L 86.95,42.846 C 86.952,33.418 81.749,25.226 74.054,20.934 L 74.054,20.934 C 72.123,19.86 71.429,17.424 72.505,15.493 L 72.505,15.493 C 73.578,13.563 76.015,12.869 77.945,13.945 L 77.945,13.945 C 88.08,19.578 94.95,30.415 94.952,42.845 L 94.952,42.845 C 94.95,55.273 88.08,66.112 77.945,71.747 L 77.945,71.747 C 77.329,72.09 76.661,72.253 76.002,72.253 L 76.002,72.253 C 74.598,72.253 73.235,71.512 72.505,70.198 L 72.505,70.198 z"
   id="path11"
   style="fill:#808080;fill-opacity:0.50196078" />
	<path
   d="M 86.954,83.633 C 85.88,81.701 86.573,79.267 88.505,78.192 L 88.505,78.192 C 100.916,71.278 109.312,58.054 109.31,42.847 L 109.31,42.847 C 109.312,27.636 100.916,14.411 88.505,7.497 L 88.505,7.497 C 86.575,6.422 85.88,3.985 86.956,2.056 L 86.956,2.056 C 88.03,0.125 90.466,-0.569 92.396,0.505 L 92.396,0.505 C 107.247,8.765 117.308,24.635 117.31,42.846 L 117.31,42.846 C 117.308,61.053 107.247,76.925 92.396,85.183 L 92.396,85.183 C 91.78,85.526 91.112,85.688 90.454,85.688 L 90.454,85.688 C 89.049,85.689 87.686,84.948 86.954,83.633 L 86.954,83.633 z"
   id="path13"
   style="fill:#808080;fill-opacity:0.50196078" />
</g>



</svg>